<svg xmlns="http://www.w3.org/2000/svg" viewBox="0 0 721.11 164"><defs><style>.cls-1{font-size:24.41px;font-family:Apercu-Light, Apercu;font-weight:300;letter-spacing:0.08em;}.cls-1,.cls-14{fill:#fff;}.cls-2{letter-spacing:0.06em;}.cls-3{letter-spacing:0.1em;}.cls-4{letter-spacing:0.09em;}.cls-5{letter-spacing:0.1em;}.cls-6{letter-spacing:0.1em;}.cls-7{letter-spacing:0.09em;}.cls-8{letter-spacing:0.09em;}.cls-9{letter-spacing:0.08em;}.cls-10{letter-spacing:0.07em;}.cls-11{letter-spacing:0.1em;}.cls-12{fill:#fd184a;}.cls-13{fill:#900420;}.cls-14{font-size:92.65px;font-family:JosefinSans-Bold, Josefin Sans;font-weight:700;}</style></defs><title>logo</title><g id="Layer_2" data-name="Layer 2"><g id="Layer_1-2" data-name="Layer 1"><text class="cls-1" transform="translate(304.07 147.26)">S<tspan class="cls-2" x="14.38" y="0">HI</tspan><tspan class="cls-3" x="40.84" y="0">PP</tspan><tspan class="cls-2" x="73.69" y="0">I</tspan><tspan class="cls-4" x="81.77" y="0">N</tspan><tspan class="cls-5" x="100.83" y="0">G </tspan><tspan class="cls-6" x="129.15" y="0">M</tspan><tspan class="cls-7" x="150.56" y="0">A</tspan><tspan class="cls-8" x="167.06" y="0">N</tspan><tspan class="cls-9" x="186.1" y="0">A</tspan><tspan x="202.21" y="0">G</tspan><tspan class="cls-10" x="221.52" y="0">E</tspan><tspan class="cls-11" x="237.11" y="0">R</tspan></text><path class="cls-12" d="M626.22,83.29c.7-2.17-.49-3.79-1.49-5.53-14.05-24.33-28-48.7-42.15-73-2-3.46-2.17-4.77,2.5-4.75Q628,.22,671,0c3.29,0,4.74,1.56,6.13,4Q692,30.17,707,56.27c4.19,7.3,8.37,14.6,12.81,21.75,1.7,2.74,1.84,4.82.15,7.71Q698.09,123,676.59,160.49c-1.52,2.65-3.39,3.52-6.41,3.51-28.29-.1-56.58-.06-84.87,0-2.87,0-5.75.41-3.13-4.08,10.72-18.37,21.29-36.83,31.93-55.25a7.88,7.88,0,0,1,1.38-1.39q28.08,29.07,56.15,58.16c.77-1.27.74-1.78.51-2.17q-20.92-36.36-41.9-72.7C629.34,85,628.43,83.29,626.22,83.29Z"/><path class="cls-13" d="M626.22,83.29c2.21,0,3.12,1.67,4,3.24q21,36.33,41.9,72.7c.23.39.26.9-.51,2.17q-28.08-29.09-56.15-58.16C618.17,96.11,623.26,90.27,626.22,83.29Z"/><text class="cls-14" transform="translate(0 85.36)">ShipShapper</text></g></g></svg>