<svg xmlns="http://www.w3.org/2000/svg" viewBox="0 0 542.35 80.49"><defs><style>.cls-1{fill:#298bd2;}.cls-2{fill:#f13c58;}.cls-3{fill:#f7c934;}.cls-4{fill:#6647a5;}.cls-5{fill:#292c4f;}</style></defs><title>logo_black</title><g id="Layer_2" data-name="Layer 2"><g id="Layer_1-2" data-name="Layer 1"><rect class="cls-1" x="26.44" y="7.79" width="47.25" height="17.5" rx="8.19"/><rect class="cls-2" y="35.39" width="44.43" height="17.5" rx="8.19"/><rect class="cls-3" x="52.96" y="35.05" width="74.42" height="17.5" rx="8.19"/><rect class="cls-4" x="21.43" y="62.99" width="74.42" height="17.5" rx="8.19"/><path class="cls-5" d="M202,79.56A27.06,27.06,0,0,1,190.12,77a29.9,29.9,0,0,1-9-6.59,28.84,28.84,0,0,1-5.72-9.15,28.49,28.49,0,0,1-2-10.3,27.08,27.08,0,0,1,2.52-11.72,29,29,0,0,1,15.65-14.82A28,28,0,0,1,202,22.35a29.12,29.12,0,0,1,10.86,2.11,28.17,28.17,0,0,1,9.38,6.26l.63.63-4.46,4.46a9.94,9.94,0,0,1-7.11,2.91,10.75,10.75,0,0,1-3.95-.76,14.55,14.55,0,0,0-5.35-1,14.23,14.23,0,0,0-5.22,1A13.64,13.64,0,0,0,192.16,41,14,14,0,0,0,189,45.67,13.83,13.83,0,0,0,188,51a13.22,13.22,0,0,0,1.27,5.87,14.58,14.58,0,0,0,3.3,4.42A14.36,14.36,0,0,0,197.09,64,13.86,13.86,0,0,0,202,65a14.66,14.66,0,0,0,5.3-1,10.62,10.62,0,0,1,4-.78,10,10,0,0,1,7.12,2.91l4.45,4.46-.63.63a28,28,0,0,1-9.38,6.25A28.92,28.92,0,0,1,202,79.56Z"/><path class="cls-5" d="M426.06,79.55V50.94a28.29,28.29,0,0,1,1.28-8.54,28.84,28.84,0,0,1,18.18-18.6,30.3,30.3,0,0,1,10.16-1.59q-.36,7-.71,13.94a17.53,17.53,0,0,0-10.28,4.93,14.71,14.71,0,0,0-3,4.46,13.56,13.56,0,0,0-1.08,5.4V65.86a13.75,13.75,0,0,1-14.58,13.69Z"/><path class="cls-5" d="M322.83,79.56a27.84,27.84,0,0,1-11.05-2.24,29,29,0,0,1-9.11-6.12,29.48,29.48,0,0,1-6.15-9.05A27.59,27.59,0,0,1,294.23,51a28.14,28.14,0,0,1,2.24-11.14,28.75,28.75,0,0,1,6.16-9.11,29.6,29.6,0,0,1,9.1-6.11A28.5,28.5,0,0,1,331,23.54,30.51,30.51,0,0,1,336.85,26V13.68A13.7,13.7,0,0,1,350.54,0h.89V51a28.05,28.05,0,0,1-2.29,11.31,28.62,28.62,0,0,1-6.2,9.07,29.34,29.34,0,0,1-9.1,6A28.11,28.11,0,0,1,322.83,79.56Zm0-42.62a13.68,13.68,0,0,0-5.52,1.11,14.09,14.09,0,0,0-4.45,3.05,14.35,14.35,0,0,0-3,4.49,14.05,14.05,0,0,0,.07,11A14.36,14.36,0,0,0,313.05,61a15,15,0,0,0,4.46,2.93,13.86,13.86,0,0,0,13.16-1.32,14.26,14.26,0,0,0,5.06-6.18A13.91,13.91,0,0,0,336.85,51a13.56,13.56,0,0,0-1.08-5.4,14.39,14.39,0,0,0-3-4.46,14.09,14.09,0,0,0-4.45-3.05A13.68,13.68,0,0,0,322.83,36.94Z"/><path class="cls-5" d="M230.45,50.82A28.67,28.67,0,1,1,259.3,79.56,28.69,28.69,0,0,1,230.45,50.82Zm42.85,0a14.21,14.21,0,1,0-28.42-.09,14.52,14.52,0,0,0,14.43,14.36A14.35,14.35,0,0,0,273.3,50.81Z"/><path class="cls-5" d="M480.81,30.69a11,11,0,0,0-10.72-8.4H467V72.57a7.06,7.06,0,0,0,13.78,2.15Z"/><path class="cls-5" d="M528.52,51.43c8.94-7.66,13.5-16.77,13.83-28.28h-7.08A9.75,9.75,0,0,0,526,29.58a20.39,20.39,0,0,1-7.95,10.61,20.43,20.43,0,0,1-7.94-10.61,9.75,9.75,0,0,0-9.24-6.43h-7.08c.33,11.51,4.89,20.62,13.83,28.28-8.62,7.34-13.47,16.49-13.82,28.2h5.69a11.78,11.78,0,0,0,11-7.3,20.14,20.14,0,0,1,7.58-9.6,20.09,20.09,0,0,1,7.59,9.6,11.78,11.78,0,0,0,11,7.3h5.69C542,67.92,537.14,58.77,528.52,51.43Z"/><path class="cls-5" d="M377.05,77.36a29.34,29.34,0,0,1-9.1-6,28.81,28.81,0,0,1-6.21-9.07A28.05,28.05,0,0,1,359.45,51V0h.9A13.7,13.7,0,0,1,374,13.68V26a30.33,30.33,0,0,1,5.88-2.48,28.48,28.48,0,0,1,19.24,1.06,29.6,29.6,0,0,1,9.1,6.11,28.58,28.58,0,0,1,6.16,9.11A28.14,28.14,0,0,1,416.66,51a27.59,27.59,0,0,1-2.29,11.19,29.68,29.68,0,0,1-6.16,9.05,28.93,28.93,0,0,1-9.1,6.12,28.51,28.51,0,0,1-22.06,0Zm5.48-39.31a14.21,14.21,0,0,0-4.45,3.05,14.56,14.56,0,0,0-3,4.46,13.85,13.85,0,0,0,.05,10.84,14.24,14.24,0,0,0,5,6.18,13.86,13.86,0,0,0,13.16,1.32A15.06,15.06,0,0,0,397.84,61a14.33,14.33,0,0,0,3.08-4.41,13.46,13.46,0,0,0,1.16-5.6A13.92,13.92,0,0,0,401,45.59a14.06,14.06,0,0,0-7.42-7.54,14.31,14.31,0,0,0-11.05,0Z"/></g></g></svg>